<svg width="1035" height="238" viewBox="0 0 1035 238" fill="none" xmlns="http://www.w3.org/2000/svg">
<g filter="url(#filter0_bi)">
<path d="M101.887 234.111C99.8617 230.161 98.3932 225.25 97.4818 219.376C86.8481 231.225 73.0243 237.149 56.0104 237.149C39.908 237.149 26.5399 232.491 15.9063 223.174C5.37384 213.856 0.10764 202.109 0.10764 187.93C0.10764 170.511 6.53848 157.143 19.4002 147.826C32.3631 138.509 51.048 133.8 75.4549 133.699H95.6589V124.28C95.6589 116.685 93.684 110.608 89.7344 106.051C85.886 101.494 79.759 99.2152 71.3533 99.2152C63.9604 99.2152 58.1372 100.987 53.8837 104.532C49.7315 108.077 47.6554 112.938 47.6554 119.115H3.75347C3.75347 109.596 6.69039 100.785 12.5642 92.6831C18.4381 84.5812 26.7425 78.2516 37.4774 73.6944C48.2124 69.0358 60.2639 66.7065 73.6319 66.7065C93.8866 66.7065 109.938 71.8208 121.787 82.0494C133.738 92.1767 139.713 106.456 139.713 124.888V196.134C139.814 211.73 141.991 223.528 146.245 231.529V234.111H101.887ZM65.5807 203.577C72.0622 203.577 78.0373 202.159 83.5061 199.324C88.9748 196.387 93.0258 192.488 95.6589 187.627V159.371H79.2526C57.2763 159.371 45.5793 166.967 44.1615 182.158L44.0096 184.74C44.0096 190.209 45.9337 194.716 49.7821 198.26C53.6305 201.805 58.8967 203.577 65.5807 203.577ZM265.798 110.912C259.823 110.102 254.556 109.697 249.999 109.697C233.39 109.697 222.503 115.318 217.339 126.559V234.111H173.437V69.7447H214.908L216.123 89.3411C224.934 74.2514 237.137 66.7065 252.734 66.7065C257.595 66.7065 262.152 67.3648 266.405 68.6813L265.798 110.912ZM352.386 201.754C360.488 201.754 367.071 199.526 372.135 195.07C377.198 190.614 379.831 184.69 380.034 177.297H421.201C421.1 188.437 418.062 198.665 412.087 207.983C406.112 217.198 397.909 224.389 387.477 229.554C377.148 234.617 365.704 237.149 353.146 237.149C329.65 237.149 311.117 229.706 297.547 214.818C283.976 199.83 277.191 179.17 277.191 152.839V149.953C277.191 124.635 283.926 104.431 297.395 89.3411C310.864 74.2514 329.347 66.7065 352.842 66.7065C373.4 66.7065 389.857 72.5803 402.213 84.328C414.669 95.9744 420.999 111.52 421.201 130.964H380.034C379.831 122.457 377.198 115.571 372.135 110.305C367.071 104.937 360.387 102.253 352.082 102.253C341.854 102.253 334.106 106 328.84 113.495C323.675 120.888 321.093 132.939 321.093 149.649V154.207C321.093 171.119 323.675 183.272 328.84 190.665C334.005 198.058 341.854 201.754 352.386 201.754ZM489.105 87.67C500.751 73.6944 515.385 66.7065 533.007 66.7065C568.655 66.7065 586.732 87.4169 587.239 128.838V234.111H543.337V130.053C543.337 120.634 541.311 113.697 537.26 109.241C533.209 104.684 526.475 102.405 517.056 102.405C504.195 102.405 494.878 107.368 489.105 117.292V234.111H445.203V0.777687H489.105V87.67ZM696.006 237.149C671.903 237.149 652.256 229.756 637.065 214.97C621.975 200.185 614.431 180.487 614.431 155.878V151.624C614.431 135.117 617.621 120.381 624.001 107.418C630.381 94.3541 639.394 84.328 651.041 77.3402C662.788 70.2511 676.157 66.7065 691.145 66.7065C713.628 66.7065 731.3 73.7956 744.161 87.9739C757.124 102.152 763.606 122.255 763.606 148.282V166.207H658.94C660.358 176.942 664.611 185.551 671.701 192.032C678.891 198.514 687.955 201.754 698.892 201.754C715.805 201.754 729.021 195.627 738.541 183.373L760.112 207.527C753.529 216.844 744.617 224.136 733.376 229.402C722.135 234.567 709.678 237.149 696.006 237.149ZM690.993 102.253C682.284 102.253 675.194 105.19 669.726 111.064C664.358 116.938 660.915 125.344 659.396 136.281H720.464V132.787C720.261 123.065 717.628 115.571 712.564 110.305C707.501 104.937 700.31 102.253 690.993 102.253ZM881.032 110.912C875.057 110.102 869.791 109.697 865.234 109.697C848.625 109.697 837.738 115.318 832.573 126.559V234.111H788.671V69.7447H830.142L831.358 89.3411C840.168 74.2514 852.372 66.7065 867.968 66.7065C872.829 66.7065 877.386 67.3648 881.64 68.6813L881.032 110.912ZM991.319 188.69C991.319 183.323 988.635 179.12 983.267 176.082C978.001 172.942 969.494 170.157 957.747 167.726C918.655 159.523 899.109 142.915 899.109 117.9C899.109 103.317 905.135 91.164 917.187 81.4418C929.339 71.6183 945.189 66.7065 964.734 66.7065C985.597 66.7065 1002.26 71.6183 1014.71 81.4418C1027.27 91.2652 1033.55 104.026 1033.55 119.723H989.648C989.648 113.444 987.622 108.279 983.571 104.228C979.52 100.076 973.191 97.9999 964.582 97.9999C957.19 97.9999 951.468 99.6709 947.417 103.013C943.366 106.355 941.34 110.608 941.34 115.773C941.34 120.634 943.619 124.584 948.176 127.622C952.835 130.559 960.633 133.142 971.57 135.37C982.508 137.496 991.724 139.927 999.218 142.661C1022.41 151.168 1034.01 165.904 1034.01 186.867C1034.01 201.856 1027.57 214.008 1014.71 223.325C1001.85 232.541 985.242 237.149 964.886 237.149C951.113 237.149 938.859 234.719 928.124 229.858C917.49 224.895 909.135 218.161 903.059 209.654C896.983 201.045 893.944 191.779 893.944 181.854H935.568C935.973 189.652 938.859 195.627 944.227 199.779C949.594 203.932 956.784 206.008 965.798 206.008C974.203 206.008 980.533 204.438 984.786 201.299C989.141 198.058 991.319 193.855 991.319 188.69Z" fill="white" fill-opacity="0.3"/>
</g>
<defs>
<filter id="filter0_bi" x="-89.8924" y="-89.2223" width="1213.9" height="416.372" filterUnits="userSpaceOnUse" color-interpolation-filters="sRGB">
<feFlood flood-opacity="0" result="BackgroundImageFix"/>
<feGaussianBlur in="BackgroundImage" stdDeviation="45"/>
<feComposite in2="SourceAlpha" operator="in" result="effect1_backgroundBlur"/>
<feBlend mode="normal" in="SourceGraphic" in2="effect1_backgroundBlur" result="shape"/>
<feColorMatrix in="SourceAlpha" type="matrix" values="0 0 0 0 0 0 0 0 0 0 0 0 0 0 0 0 0 0 127 0" result="hardAlpha"/>
<feOffset/>
<feGaussianBlur stdDeviation="10"/>
<feComposite in2="hardAlpha" operator="arithmetic" k2="-1" k3="1"/>
<feColorMatrix type="matrix" values="0 0 0 0 1 0 0 0 0 1 0 0 0 0 1 0 0 0 0.2 0"/>
<feBlend mode="normal" in2="shape" result="effect2_innerShadow"/>
</filter>
</defs>
</svg>
