<svg width="23" height="23" viewBox="0 0 23 23" fill="none" xmlns="http://www.w3.org/2000/svg">
<path fill-rule="evenodd" clip-rule="evenodd" d="M7.00015 0.733277C8.185 0.678732 8.56278 0.666611 11.581 0.666611C14.5991 0.666611 14.9769 0.679742 16.1608 0.733277C17.3446 0.786813 18.1527 0.975702 18.8597 1.24944C19.6002 1.52924 20.2719 1.96661 20.8274 2.53227C21.3931 3.08681 21.8294 3.75752 22.1082 4.49893C22.383 5.20601 22.5709 6.01409 22.6254 7.1959C22.68 8.38277 22.6921 8.76055 22.6921 11.7777C22.6921 14.7959 22.6789 15.1737 22.6254 16.3585C22.5719 17.5403 22.383 18.3484 22.1082 19.0555C21.8294 19.797 21.3924 20.4688 20.8274 21.0242C20.2719 21.5898 19.6002 22.0262 18.8597 22.305C18.1527 22.5797 17.3446 22.7676 16.1628 22.8222C14.9769 22.8767 14.5991 22.8888 11.581 22.8888C8.56278 22.8888 8.185 22.8757 7.00015 22.8222C5.81833 22.7686 5.01025 22.5797 4.30318 22.305C3.56169 22.0262 2.88987 21.5891 2.3345 21.0242C1.76922 20.4693 1.33178 19.7978 1.05268 19.0565C0.77894 18.3494 0.591061 17.5414 0.536515 16.3595C0.48197 15.1727 0.469849 14.7949 0.469849 11.7777C0.469849 8.75954 0.48298 8.38176 0.536515 7.19792C0.590051 6.01409 0.77894 5.20601 1.05268 4.49893C1.33219 3.7576 1.76997 3.08612 2.33551 2.53126C2.89009 1.96611 3.56123 1.52867 4.30217 1.24944C5.00924 0.975702 5.81732 0.787823 6.99914 0.733277H7.00015ZM16.0709 2.73328C14.8991 2.67974 14.5476 2.66863 11.581 2.66863C8.61429 2.66863 8.26278 2.67974 7.09106 2.73328C6.00722 2.78277 5.41934 2.96358 5.02742 3.11611C4.50924 3.31813 4.13854 3.55752 3.74965 3.94641C3.38101 4.30505 3.0973 4.74164 2.91934 5.22419C2.76682 5.61611 2.58601 6.20398 2.53652 7.28782C2.48298 8.45954 2.47187 8.81106 2.47187 11.7777C2.47187 14.7444 2.48298 15.0959 2.53652 16.2676C2.58601 17.3515 2.76682 17.9393 2.91934 18.3313C3.09712 18.8131 3.38096 19.2505 3.74965 19.609C4.10823 19.9777 4.54561 20.2616 5.02742 20.4393C5.41934 20.5919 6.00722 20.7727 7.09106 20.8222C8.26278 20.8757 8.61328 20.8868 11.581 20.8868C14.5486 20.8868 14.8991 20.8757 16.0709 20.8222C17.1547 20.7727 17.7426 20.5919 18.1345 20.4393C18.6527 20.2373 19.0234 19.9979 19.4123 19.609C19.781 19.2505 20.0648 18.8131 20.2426 18.3313C20.3951 17.9393 20.5759 17.3515 20.6254 16.2676C20.6789 15.0959 20.6901 14.7444 20.6901 11.7777C20.6901 8.81106 20.6789 8.45954 20.6254 7.28782C20.5759 6.20398 20.3951 5.61611 20.2426 5.22419C20.0406 4.70601 19.8012 4.3353 19.4123 3.94641C19.0536 3.57779 18.617 3.2941 18.1345 3.11611C17.7426 2.96358 17.1547 2.78277 16.0709 2.73328ZM10.1618 15.203C10.9544 15.5329 11.8369 15.5774 12.6587 15.329C13.4804 15.0805 14.1904 14.5544 14.6674 13.8406C15.1444 13.1268 15.3588 12.2695 15.2739 11.4152C15.1891 10.5609 14.8103 9.76254 14.2022 9.15651C13.8145 8.76911 13.3458 8.47248 12.8298 8.28797C12.3137 8.10346 11.7632 8.03566 11.2178 8.08946C10.6724 8.14325 10.1458 8.3173 9.67571 8.59907C9.20566 8.88084 8.80393 9.26332 8.49945 9.71899C8.19496 10.1747 7.99529 10.6922 7.91481 11.2342C7.83434 11.7763 7.87505 12.3295 8.03403 12.854C8.19301 13.3785 8.46629 13.8612 8.83421 14.2673C9.20213 14.6735 9.65553 14.9931 10.1618 15.203ZM7.54258 7.73934C8.0729 7.20901 8.7025 6.78833 9.3954 6.50132C10.0883 6.21431 10.831 6.06658 11.581 6.06658C12.331 6.06658 13.0736 6.21431 13.7665 6.50132C14.4594 6.78833 15.089 7.20901 15.6193 7.73934C16.1497 8.26967 16.5704 8.89926 16.8574 9.59216C17.1444 10.2851 17.2921 11.0277 17.2921 11.7777C17.2921 12.5277 17.1444 13.2704 16.8574 13.9633C16.5704 14.6562 16.1497 15.2858 15.6193 15.8161C14.5483 16.8872 13.0956 17.4889 11.581 17.4889C10.0663 17.4889 8.61362 16.8872 7.54258 15.8161C6.47153 14.7451 5.86982 13.2924 5.86982 11.7777C5.86982 10.263 6.47153 8.81038 7.54258 7.73934ZM18.5587 6.91712C18.6902 6.79315 18.7954 6.64407 18.8681 6.47871C18.9409 6.31335 18.9798 6.13506 18.9824 5.95442C18.985 5.77377 18.9514 5.59444 18.8835 5.42703C18.8155 5.25961 18.7147 5.10753 18.587 4.97978C18.4592 4.85203 18.3072 4.75121 18.1397 4.6833C17.9723 4.61538 17.793 4.58174 17.6123 4.58437C17.4317 4.58701 17.2534 4.62586 17.0881 4.69863C16.9227 4.7714 16.7736 4.87661 16.6496 5.00803C16.4085 5.26361 16.2765 5.6031 16.2817 5.95442C16.2868 6.30574 16.4286 6.64124 16.6771 6.88968C16.9255 7.13813 17.261 7.27997 17.6123 7.2851C17.9637 7.29022 18.3032 7.15822 18.5587 6.91712Z" fill="white"/>
</svg>
