<svg width="108" height="90" viewBox="0 0 108 90" fill="none" xmlns="http://www.w3.org/2000/svg">
<line x1="2.86071" y1="58.6576" x2="103.033" y2="58.6576" stroke="white" stroke-width="3"/>
<circle cx="100.172" cy="58.3793" r="7.15517" fill="white"/>
<circle cx="7.15517" cy="59.0948" r="7.15517" fill="white"/>
<path d="M60.0618 39.5495L51.0645 13.64L42.5407 39.5495H60.0618ZM44.1305 56.3603V59.8103H26.5418V56.3603L30.6683 55.3793C31.1644 55.2666 31.5816 55.0636 31.9199 54.7705C32.2806 54.4774 32.54 54.0827 32.6978 53.5866L48.8321 6.80743H56.0705L72.8813 53.5866C73.0617 54.0827 73.321 54.4774 73.6592 54.7705C73.9975 55.0411 74.4146 55.244 74.9107 55.3793L78.8005 56.3603V59.8103H58.7765V56.3603L65.4737 55.1426L61.4824 43.6761H41.1878L37.4332 55.1426L44.1305 56.3603Z" fill="white"/>
<path fill-rule="evenodd" clip-rule="evenodd" d="M52.9483 87C62.8275 87 70.8362 78.9913 70.8362 69.1121C70.8362 59.2328 62.8275 51.2241 52.9483 51.2241C43.0691 51.2241 35.0604 59.2328 35.0604 69.1121C35.0604 78.9913 43.0691 87 52.9483 87ZM51.0983 72.1537C51.2649 71.7322 51.3481 71.3055 51.3481 70.8736C51.3481 70.3844 51.2519 69.9551 51.0593 69.5856C50.8668 69.211 50.6144 68.8805 50.3022 68.5943C49.9951 68.3081 49.6387 68.0531 49.2328 67.8294C48.8321 67.6004 48.421 67.387 47.9995 67.1893C47.5416 66.9707 47.1331 66.7678 46.774 66.5805C46.4202 66.3931 46.1209 66.198 45.8764 65.995C45.6318 65.7869 45.4445 65.5579 45.3144 65.3081C45.1895 65.0532 45.127 64.7487 45.127 64.3949C45.127 63.8173 45.304 63.3697 45.6578 63.0523C46.0117 62.7297 46.5268 62.5684 47.2033 62.5684C47.5676 62.5684 47.9058 62.623 48.2181 62.7323C48.5303 62.8364 48.7671 62.9586 48.9284 63.0991C49.0324 63.1824 49.1079 63.2735 49.1547 63.3723C49.2068 63.466 49.2432 63.5623 49.264 63.6611L49.5684 65.2613H50.5676C50.6352 64.8086 50.6794 64.3428 50.7003 63.8641C50.7263 63.3801 50.7211 62.8806 50.6846 62.3654C50.2787 62.1677 49.7844 62.0116 49.2016 61.8971C48.624 61.7774 48.0515 61.7175 47.4843 61.7175C46.8287 61.7175 46.251 61.7982 45.7515 61.9595C45.2519 62.1208 44.8356 62.3446 44.5026 62.6308C44.1695 62.9118 43.9172 63.2501 43.7454 63.6455C43.5737 64.0358 43.4878 64.4625 43.4878 64.9257C43.4878 65.4512 43.5893 65.9092 43.7923 66.2995C44.0004 66.6845 44.2632 67.0176 44.5806 67.2986C44.8981 67.5796 45.2545 67.8242 45.65 68.0323C46.0455 68.2405 46.4332 68.433 46.813 68.6099C47.2241 68.7973 47.5988 68.9794 47.9371 69.1563C48.2805 69.3333 48.5719 69.5258 48.8113 69.7339C49.0507 69.9421 49.238 70.1815 49.3733 70.4521C49.5086 70.7227 49.5762 71.0453 49.5762 71.42C49.5762 72.06 49.3759 72.57 48.9752 72.9499C48.5797 73.3245 48.0021 73.5119 47.2424 73.5119C46.7584 73.5119 46.3213 73.426 45.931 73.2543C45.5407 73.0826 45.2441 72.8926 45.0412 72.6845C44.9475 72.5908 44.8798 72.4971 44.8382 72.4035C44.8018 72.3098 44.7758 72.2213 44.7602 72.1381L44.4714 70.3116H43.4332C43.3656 70.8111 43.3187 71.3211 43.2927 71.8415C43.2667 72.3566 43.2641 72.864 43.2849 73.3636C43.6908 73.6081 44.2242 73.8397 44.885 74.0583C45.5459 74.2716 46.2875 74.3783 47.1097 74.3783C47.8434 74.3783 48.4782 74.2768 49.0142 74.0739C49.5502 73.8709 49.9899 73.6055 50.3334 73.2777C50.6768 72.9499 50.9318 72.5752 51.0983 72.1537ZM57.0073 61.8737C56.5545 61.9101 56.0758 61.9283 55.571 61.9283H53.0654V62.7401L54.3768 62.9977C54.4808 63.0185 54.5641 63.0679 54.6265 63.146C54.689 63.224 54.7202 63.3151 54.7202 63.4192V72.6376C54.7202 72.7573 54.6864 72.8588 54.6187 72.9421C54.5511 73.0253 54.4522 73.0774 54.3221 73.0982L53.0654 73.3245V74.1207H55.5944C56.0159 74.1207 56.4687 74.1389 56.9526 74.1754C57.4366 74.2118 57.8503 74.2326 58.1937 74.2378C59.12 74.2586 59.9604 74.1311 60.7149 73.8553C61.4695 73.5795 62.1095 73.1658 62.6351 72.6142C63.1607 72.0626 63.5666 71.3731 63.8528 70.5457C64.139 69.7131 64.2821 68.7556 64.2821 67.6733C64.2821 65.7687 63.806 64.3168 62.8537 63.3177C61.9014 62.3134 60.4209 61.8112 58.4123 61.8112C57.9283 61.8112 57.46 61.832 57.0073 61.8737ZM57.3507 73.3245C56.9812 73.2985 56.6846 73.2621 56.4609 73.2153V62.7947C56.6326 62.7843 56.8537 62.7635 57.1243 62.7323C57.4001 62.7011 57.7046 62.6854 58.0376 62.6854C59.5103 62.6854 60.6057 63.1148 61.3238 63.9734C62.0471 64.8268 62.4088 66.1564 62.4088 67.9621C62.4088 69.8354 62.0549 71.1936 61.3472 72.0366C60.6395 72.8744 59.6404 73.3115 58.3498 73.348C58.0584 73.3532 57.7254 73.3454 57.3507 73.3245Z" fill="white"/>
<path d="M57.7591 84.5222L64.764 79.623C73.7195 73.3537 80.6513 64.6077 84.7096 54.457C88.7679 44.3064 89.7764 33.1922 87.6115 22.4769C87.5046 21.9488 87.2776 21.4525 86.9482 21.0262C86.6187 20.6 86.1955 20.2553 85.7114 20.0189L52.948 4L20.1888 20.0189C19.704 20.2548 19.28 20.5993 18.9497 21.0255C18.6195 21.4518 18.3918 21.9484 18.2845 22.4769C16.1201 33.1926 17.1292 44.3071 21.1883 54.4577C25.2474 64.6084 32.18 73.3542 41.1362 79.623L48.1411 84.5222C49.5508 85.5084 51.2297 86.0374 52.9501 86.0374C54.6706 86.0374 56.3494 85.5084 57.7591 84.5222V84.5222Z" stroke="white" stroke-width="7" stroke-linecap="round" stroke-linejoin="round"/>
</svg>
