<svg width="28" height="23" viewBox="0 0 28 23" fill="none" xmlns="http://www.w3.org/2000/svg">
<path d="M27.8031 3.30256C26.7979 3.748 25.718 4.04898 24.5827 4.18502C25.7541 3.4841 26.6305 2.38093 27.0483 1.08136C25.9477 1.73507 24.7432 2.1952 23.4872 2.44177C22.6425 1.53988 21.5237 0.942101 20.3044 0.741228C19.0852 0.540355 17.8338 0.74763 16.7444 1.33087C15.655 1.91412 14.7887 2.8407 14.2799 3.96675C13.7711 5.09281 13.6483 6.35535 13.9306 7.55834C11.7006 7.44638 9.51907 6.86676 7.52758 5.85712C5.53609 4.84747 3.77914 3.43036 2.37077 1.69776C1.88921 2.52845 1.61231 3.49157 1.61231 4.51729C1.61178 5.44068 1.83917 6.34992 2.27431 7.16435C2.70946 7.97877 3.3389 8.6732 4.10679 9.18602C3.21624 9.15768 2.34534 8.91705 1.56657 8.48414V8.55638C1.56648 9.85146 2.01446 11.1067 2.83449 12.1091C3.65453 13.1115 4.79611 13.7993 6.06554 14.0558C5.2394 14.2794 4.37326 14.3123 3.53253 14.1521C3.89069 15.2665 4.58835 16.2409 5.52784 16.939C6.46732 17.6372 7.60161 18.0241 8.7719 18.0455C6.78527 19.6051 4.33179 20.451 1.80614 20.4473C1.35875 20.4474 0.911738 20.4213 0.467407 20.369C3.03108 22.0174 6.01538 22.8922 9.06324 22.8888C19.3807 22.8888 25.0209 14.3435 25.0209 6.93232C25.0209 6.69154 25.0149 6.44835 25.0041 6.20757C26.1012 5.41417 27.0482 4.43169 27.8007 3.30617L27.8031 3.30256V3.30256Z" fill="white"/>
</svg>
